<svg width="30" height="30" viewBox="0 0 30 30" fill="none" xmlns="http://www.w3.org/2000/svg">
<g clip-path="url(#clip0_2212_6778)">
<path d="M1.09099 22.5728C0.767679 23.083 0.450313 23.5968 0.138963 24.1143C-0.131975 24.5674 0.00349377 25.1568 0.456306 25.4292L6.66349 29.2378C7.11678 29.5096 7.70482 29.373 7.97693 28.9202C8.26839 28.4001 8.57048 27.886 8.88303 27.3782C11.3304 23.3439 13.8215 23.797 18.2613 25.9284L24.4237 28.8285C24.9215 29.0559 25.466 28.8285 25.6917 28.3755L28.6376 21.7122C28.8633 21.258 28.6376 20.6697 28.1831 20.4424C26.8697 19.8527 24.2883 18.6283 22.0226 17.4956C13.6413 13.4599 6.52709 13.7322 1.09146 22.5728H1.09099Z" fill="url(#paint0_linear_2212_6778)"/>
<path d="M28.9088 7.42924C29.2322 6.91912 29.5497 6.40526 29.8611 5.88775C30.133 5.4347 29.9963 4.84525 29.5435 4.57291L23.3363 0.764314C22.8833 0.492439 22.295 0.629079 22.0229 1.08189C21.732 1.60229 21.43 2.11639 21.117 2.62385C18.6694 6.65814 16.1783 6.20509 11.7385 4.07369L5.57609 1.17353C5.07828 0.946189 4.53523 1.17353 4.30812 1.62658L1.36343 8.28986C1.13656 8.74408 1.36343 9.33377 1.81648 9.5597C3.12992 10.1494 5.71273 11.3738 7.97703 12.5065C16.3599 16.4972 23.4727 16.2696 28.9084 7.42924H28.9088Z" fill="url(#paint1_linear_2212_6778)"/>
</g>
<defs>
<linearGradient id="paint0_linear_2212_6778" x1="28.4884" y1="31.2106" x2="9.73976" y2="20.4456" gradientUnits="userSpaceOnUse">
<stop stop-color="#0052CC"/>
<stop offset="0.918" stop-color="#2380FB"/>
<stop offset="1" stop-color="#2684FF"/>
</linearGradient>
<linearGradient id="paint1_linear_2212_6778" x1="1.51137" y1="-1.22086" x2="20.26" y2="9.54535" gradientUnits="userSpaceOnUse">
<stop stop-color="#0052CC"/>
<stop offset="0.918" stop-color="#2380FB"/>
<stop offset="1" stop-color="#2684FF"/>
</linearGradient>
<clipPath id="clip0_2212_6778">
<rect width="30" height="30" fill="white"/>
</clipPath>
</defs>
</svg>
